<svg width="1262" height="566" fill="none" xmlns="http://www.w3.org/2000/svg"><mask id="a" style="mask-type:alpha" maskUnits="userSpaceOnUse" x="0" y="0" width="1262" height="566"><path d="M0 9.402C0 4.209 3.717 0 8.303 0H1253.7c4.58 0 8.3 4.21 8.3 9.402v547.196c0 5.193-3.72 9.402-8.3 9.402H8.303C3.717 566 0 561.791 0 556.598V9.402z" fill="#1C1C1C"/></mask><g mask="url(#a)" stroke="#F9F9F9" stroke-opacity=".15" stroke-width=".878"><path d="M929.136 369.977s196.274-157.706 466.634-156.089c270.38 1.61-138.93 512.017-138.93 512.017.01-.017 22.68-28.827 22.68-28.827"/><path d="M939.793 358.174s194.697-162.97 465.417-159.392c270.71 3.579-133.25 532.674-133.25 532.674 0-.018 22.38-29.885 22.38-29.885"/><path d="M950.74 346.002s193.14-168.252 464.2-162.702c271.07 5.552-127.58 553.315-127.58 553.315.01-.018 22.08-30.943 22.08-30.943"/><path d="M962.108 333.286S1153.7 159.751 1425.12 167.27c271.43 7.523-121.92 573.958-121.92 573.958.01-.018 21.78-32 21.78-32"/><path d="M973.525 320.502s190.055-178.803 461.835-169.316c271.79 9.488-116.27 594.604-116.27 594.604.01-.018 21.49-33.057 21.49-33.057"/><path d="M985.008 307.655S1173.53 123.565 1445.7 135.02c272.18 11.459-110.63 615.255-110.63 615.255.01-.018 21.19-34.116 21.19-34.116"/><path d="M996.522 294.734s187.008-189.378 459.588-175.951c272.58 13.429-105 635.91-105 635.91l20.89-35.174"/><path d="M1008.08 281.759s185.5-194.668 458.48-179.258c272.98 15.393-99.38 656.571-99.38 656.571l20.59-36.234"/><path d="M1312.99 94.8s-325.342 98.112-409.1 330.534c-83.757 232.405 897.04 108.469 897.04 108.469l-55.25 6.63"/><path d="M1328.14 83.63s-319.68 100.394-405.43 331.827c-85.758 231.431 875.1 99.32 875.1 99.32l-54.12 7.093"/><path d="M1343.42 70.576s-314.01 102.676-401.758 333.118c-87.748 230.442 853.148 90.172 853.148 90.172l-52.99 7.555"/><path d="M1358.84 57.392S1050.5 162.347 960.764 391.815c-89.74 229.466 831.196 81.028 831.196 81.028l-51.86 8.018"/><path d="M1374.39 44.074s-302.66 107.215-394.379 335.708c-91.718 228.476 809.249 71.89 809.249 71.89l-50.73 8.48"/><path d="M1390.08 30.696S1093.1 140.187 999.404 367.688c-93.697 227.5 787.306 62.755 787.306 62.755l-49.6 8.942"/><path d="M1406.39 17.677s-291.31 111.765-386.97 338.274c-95.662 226.507 765.39 53.626 765.39 53.626l-48.47 9.402"/><path d="M1422.93 4.7s-285.63 114.037-383.25 339.553c-97.622 225.531 743.46 44.517 743.46 44.517l-47.34 9.864"/><path d="M1440.49-7.5s-279.95 116.29-379.52 340.845c-99.58 224.538 721.53 35.397 721.53 35.397l-46.22 10.324"/><path d="M1458.83-19.124s-274.26 118.558-375.78 342.12c-101.523 223.561 699.61 26.282 699.61 26.282l-45.08 10.785"/><path d="M1477.91-30.202S1209.34 90.62 1105.89 313.189c-103.46 222.568 677.7 17.173 677.7 17.173l-43.95 11.246"/><path d="M1497.66-40.758S1234.78 82.33 1129.41 303.904c-105.39 221.589 655.81 8.074 655.81 8.074l-42.82 11.704"/><path d="M1517.5-50.704S1260.32 74.629 1153.03 295.24c-107.3 220.595 633.91-1.007 633.91-1.007l-41.69 12.165"/><path d="M1537.36-60.099S1285.88 67.494 1176.69 287.11c-109.2 219.616 612.02-10.098 612.02-10.098l-40.55 12.622"/><path d="M1555.86-68.646s-245.77 129.85-356.85 348.471c-111.09 218.621 590.14-19.184 590.14-19.184l-39.42 13.082"/><path d="M1573.18-76.428s-240.06 132.09-353.02 349.731c-112.96 217.641 568.3-28.258 568.3-28.258l-38.29 13.539"/><path d="M1589.39-83.53s-234.34 134.343-349.15 350.988c-114.82 216.645 546.44-37.332 546.44-37.332l-37.16 13.998"/><path d="M1604.58-90.017S1375.96 46.578 1259.3 262.242c-116.66 215.665 524.59-46.382 524.59-46.382.01.003-36.03 14.456-36.03 14.456"/></g></svg>