<svg width="1920" height="1159" fill="none" xmlns="http://www.w3.org/2000/svg"><mask id="a" style="mask-type:alpha" maskUnits="userSpaceOnUse" x="0" y="0" width="1920" height="1159"><rect width="1920" height="1159" rx="10" fill="#1C1C1C"/></mask><g mask="url(#a)" stroke="#fff" stroke-opacity=".15" stroke-width=".878"><path d="M562.874 923.373S374.953 739.988 121.913 741.464c-253.061 1.466 143.659 594.646 143.659 594.646-.008-.02-22.001-33.5-22.001-33.5"/><path d="M552.541 909.888S365.993 720.443 112.724 724.195c-253.258 3.752 138.865 618.455 138.865 618.455-.008-.02-21.742-34.72-21.742-34.72"/><path d="M541.932 895.989S356.739 700.463 103.251 706.501c-253.486 6.041 134.078 642.259 134.078 642.259-.008-.02-21.483-35.94-21.483-35.94"/><path d="M530.921 881.475S347.069 679.866 93.348 688.187c-253.727 8.326 129.307 666.053 129.307 666.053-.009-.02-21.227-37.16-21.227-37.16"/><path d="M519.862 866.888S337.346 659.212 83.378 669.814c-253.966 10.604 124.55 689.856 124.55 689.856-.009-.02-20.972-38.37-20.972-38.37"/><path d="M508.741 852.236s-181.2-213.766-435.43-200.884c-254.236 12.887 119.806 713.668 119.806 713.668-.008-.02-20.718-39.59-20.718-39.59"/><path d="M497.586 837.505S317.691 617.645 63.168 632.811c-254.522 15.169 115.075 737.499 115.075 737.499l-20.467-40.82"/><path d="M486.391 822.717S307.788 596.758 52.979 614.222c-254.807 17.443 110.357 761.328 110.357 761.328l-20.217-42.03"/><path d="M195.423 605.182s308.542 115.11 393.529 386.85C673.937 1263.75-251.6 1117.55-251.6 1117.55l52.133 7.82"/><path d="M181.05 592.571s303.222 117.734 390.04 388.227C657.912 1251.29-248.938 1095.6-248.938 1095.6l51.074 8.37"/><path d="M166.536 577.794s297.899 120.352 386.542 389.595c88.646 269.241-799.492 104.101-799.492 104.101l50.014 8.9"/><path d="M151.883 562.868s292.575 122.965 383.042 390.976c90.472 268.006-778.959 93.406-778.959 93.406l48.955 9.44"/><path d="M137.11 547.79s287.239 125.553 379.525 392.33c92.283 266.76-758.431 82.73-758.431 82.73l47.895 9.97"/><path d="M122.209 532.645S404.118 660.8 498.208 926.322c94.093 265.518-737.91 72.062-737.91 72.062l46.836 10.506"/><path d="M106.733 517.925s276.576 130.752 372.461 395.018c95.888 264.267-717.413 61.411-717.413 61.411l45.775 11.035"/><path d="M91.036 503.259s271.241 133.343 368.912 396.35c97.682 263.021-696.896 50.792-696.896 50.792l44.716 11.568"/><path d="M74.399 489.504s265.894 135.909 365.357 397.693c99.459 261.763-676.393 40.17-676.393 40.17l43.655 12.097"/><path d="M57.026 476.429s260.551 138.487 361.782 399.01c101.233 260.521-655.898 29.562-655.898 29.562l42.596 12.629"/><path d="M38.968 463.995s255.204 141.061 358.191 400.319c102.99 259.256-635.409 18.971-635.409 18.971l41.535 13.159"/><path d="M20.292 452.176s249.854 143.627 354.586 401.619c104.741 258.005-614.946 8.403-614.946 8.403l40.476 13.685"/><path d="M1.534 441.062S246.026 587.23 352.503 843.991c106.474 256.739-594.465-2.135-594.465-2.135l39.415 14.212"/><path d="M-17.224 430.584s239.13 148.721 347.326 404.212c108.198 255.484-574.003-12.675-574.003-12.675l38.354 14.737"/><path d="M-34.689 421.064s233.763 151.268 343.664 405.485c109.901 254.221-553.551-23.196-553.551-23.196l37.293 15.262"/><path d="M-51.026 412.406s228.385 153.79 339.981 406.75C400.55 1072.12-244.17 785.463-244.17 785.463l36.23 15.785"/><path d="M-66.305 404.513s223.007 156.322 336.271 408.006c113.264 251.681-512.695-44.177-512.695-44.177l35.169 16.307"/><path d="M-80.606 397.316s217.621 158.846 332.542 409.269c114.92 250.425-492.272-54.623-492.272-54.623-.008.004 34.108 16.83 34.108 16.83"/></g></svg>